# xmcd CD database file
#
# Track frame offsets:
#	150
#	18311
#	58572
#	88550
#	114825
#	139544
#	155341
#	184437
#	210824
#	240723
#	266112
#	287906
#
# Disc length: 4348 seconds
#
# Revision: 0
# Processed by: cddbd v1.4PL0 Copyright (c) Steve Scherf et al.
# Submitted via: CDex 1.50Beta7
#
DISCID=9f10fa0c
DTITLE=Various Artist - 2003 Jazz Series at the Beneroya
DYEAR=2003
DGENRE=Jazz
TTITLE0=Take 6 - Oh He is Christmas
TTITLE1=Les McCan - Compared to What
TTITLE2=Houston Person - Tenderly
TTITLE3=Steve Turre - The Lotus Flower
TTITLE4=Marlena Shaw - Handy Man
TTITLE5=Heath Brothers - South Filthy
TTITLE6=Carla Cook - Watermelon Man
TTITLE7=Regina Carter - For Someone I Love
TTITLE8=Rene Marie - I Only Have Eyes For You
TTITLE9=Russel Malone - Mugshot
TTITLE10=Pete Escovedo - Charango Sunrise
TTITLE11=Babatunde Lea - Footprints
EXTD=YEAR: 2003
EXTT0=
EXTT1=
EXTT2=
EXTT3=
EXTT4=
EXTT5=
EXTT6=
EXTT7=
EXTT8=
EXTT9=
EXTT10=
EXTT11=
PLAYORDER=
